<svg viewBox="0 0 543 135" xmlns="http://www.w3.org/2000/svg">
  <path d="M94.271 56.584c0 7.211-.852 13.814-2.555 19.808-1.703 5.994-4.324 11.181-7.863 15.561-3.539 4.38-8.03 7.808-13.471 10.285l23.358 26.078H67.396l-17.783-21.765H48.086c-7.919 0-14.776-1.183-20.571-3.55-5.795-2.366-10.583-5.762-14.366-10.186-3.782-4.424-6.602-9.71-8.46-15.859-1.858-6.149-2.787-12.984-2.787-20.505 0-10.042 1.648-18.79 4.943-26.244 3.296-7.454 8.372-13.238 15.229-17.353 6.857-4.114 15.572-6.171 26.145-6.171 10.529 0 19.188 2.057 25.979 6.171 6.791 4.115 11.834 9.91 15.129 17.386 3.296 7.477 4.944 16.258 4.944 26.344Zm-70.803 0c0 6.769.851 12.597 2.554 17.485 1.703 4.889 4.369 8.649 7.997 11.281 3.627 2.632 8.316 3.948 14.067 3.948 5.839 0 10.573-1.316 14.201-3.948 3.627-2.632 6.27-6.392 7.929-11.281 1.659-4.888 2.489-10.716 2.489-17.485 0-10.174-1.902-18.181-5.707-24.021-3.805-5.84-10.064-8.76-18.779-8.76-5.795 0-10.518 1.317-14.167 3.949-3.65 2.632-6.327 6.392-8.03 11.28-1.703 4.889-2.554 10.74-2.554 17.552ZM170.85 31.036v74.188h-15.527l-2.721-9.489h-1.062c-1.592 2.522-3.583 4.579-5.972 6.171-2.389 1.593-5.021 2.765-7.896 3.517a35.269 35.269 0 0 1-8.959 1.128c-5.308 0-9.931-.94-13.868-2.82-3.937-1.88-7.001-4.81-9.191-8.792-2.189-3.982-3.284-9.158-3.284-15.528V31.036h20.239v43.332c0 5.309.951 9.312 2.853 12.01 1.902 2.699 4.932 4.048 9.091 4.048 4.114 0 7.343-.94 9.688-2.82 2.345-1.88 3.993-4.645 4.944-8.295.951-3.649 1.426-8.106 1.426-13.371V31.036h20.239Zm52.647-1.393c1.017 0 2.201.056 3.55.166 1.349.111 2.444.255 3.284.431l-1.526 18.978c-.663-.22-1.603-.386-2.82-.497a35.732 35.732 0 0 0-3.152-.166c-2.61 0-5.143.332-7.598.995-2.455.664-4.656 1.736-6.602 3.218-1.947 1.482-3.484 3.429-4.612 5.84-1.128 2.411-1.692 5.364-1.692 8.859v37.757H182.09V31.036h15.328l2.986 12.476h.996c1.459-2.522 3.284-4.833 5.474-6.935a26.308 26.308 0 0 1 7.499-5.043c2.809-1.26 5.85-1.891 9.124-1.891Zm40.689-.133c9.953 0 17.584 2.168 22.893 6.503 5.309 4.336 7.963 10.927 7.963 19.775v49.436h-14.134l-3.915-10.086h-.531c-2.123 2.654-4.291 4.822-6.503 6.503-2.212 1.681-4.756 2.92-7.631 3.716-2.875.796-6.37 1.194-10.485 1.194-4.379 0-8.305-.84-11.778-2.521-3.473-1.681-6.204-4.258-8.195-7.731-1.991-3.472-2.986-7.885-2.986-13.238 0-7.874 2.765-13.681 8.294-17.419 5.53-3.738 13.825-5.806 24.884-6.205l12.874-.398v-3.251c0-3.893-1.018-6.746-3.053-8.56s-4.866-2.721-8.493-2.721c-3.583 0-7.1.509-10.551 1.526a81.928 81.928 0 0 0-10.352 3.849l-6.702-13.67c3.937-2.079 8.35-3.716 13.238-4.91 4.889-1.194 9.943-1.792 15.163-1.792Zm10.75 41.341-7.83.265c-6.547.178-11.093 1.35-13.637 3.517-2.543 2.168-3.815 5.022-3.815 8.56 0 3.097.907 5.298 2.72 6.603 1.814 1.305 4.181 1.957 7.1 1.957 4.335 0 7.996-1.282 10.983-3.848 2.986-2.566 4.479-6.215 4.479-10.949v-6.105Zm73.08-41.208c7.919 0 14.289 2.157 19.111 6.47 4.822 4.314 7.233 11.226 7.233 20.736v48.375h-20.239V61.893c0-5.308-.962-9.312-2.887-12.011-1.924-2.698-4.943-4.048-9.058-4.048-6.193 0-10.418 2.102-12.674 6.304-2.256 4.203-3.384 10.264-3.384 18.182v34.904h-20.239V31.036h15.461l2.721 9.49h1.128c1.593-2.566 3.572-4.645 5.939-6.238 2.367-1.592 4.999-2.765 7.896-3.517a35.653 35.653 0 0 1 8.992-1.128Z" fill="#333"/>
  <path d="m452.141 104.716-6.697-21.988h-33.677l-6.698 21.988h-21.103l32.603-92.754h23.946l32.729 92.754h-21.103ZM440.768 66.3l-6.697-21.482c-.421-1.432-.98-3.275-1.675-5.529a700.718 700.718 0 0 1-2.085-6.887 128.622 128.622 0 0 1-1.674-6.097c-.421 1.728-1.001 3.865-1.738 6.413a1131.42 1131.42 0 0 1-3.57 12.1L416.695 66.3h24.073Zm98.623 12.763c0 5.476-1.327 10.236-3.981 14.28-2.654 4.044-6.519 7.161-11.594 9.351-5.076 2.191-11.236 3.286-18.481 3.286-3.201 0-6.329-.21-9.383-.632a60.487 60.487 0 0 1-8.783-1.864 51.765 51.765 0 0 1-7.992-3.064V82.223a149.996 149.996 0 0 0 13.647 5.244c4.718 1.559 9.394 2.338 14.027 2.338 3.201 0 5.781-.421 7.74-1.264 1.959-.842 3.38-2.001 4.265-3.475.885-1.474 1.327-3.159 1.327-5.055 0-2.316-.779-4.296-2.338-5.939-1.559-1.642-3.696-3.18-6.413-4.612a286.714 286.714 0 0 0-9.193-4.613c-2.149-1.01-4.487-2.242-7.014-3.696-2.527-1.453-4.928-3.233-7.203-5.339-2.275-2.106-4.138-4.665-5.591-7.677-1.453-3.012-2.18-6.624-2.18-10.836 0-5.518 1.264-10.235 3.791-14.153 2.527-3.917 6.139-6.918 10.836-9.004 4.697-2.084 10.246-3.127 16.649-3.127 4.801 0 9.382.558 13.742 1.674 4.359 1.116 8.919 2.728 13.679 4.834L532.63 32.75c-4.255-1.727-8.067-3.064-11.436-4.012a37.855 37.855 0 0 0-10.299-1.422c-2.443 0-4.528.39-6.255 1.169-1.727.78-3.033 1.875-3.918 3.286-.885 1.411-1.327 3.043-1.327 4.896 0 2.191.642 4.034 1.927 5.529 1.285 1.496 3.223 2.938 5.813 4.328 2.591 1.39 5.824 3.012 9.699 4.865 4.718 2.233 8.751 4.56 12.1 6.982 3.349 2.422 5.929 5.266 7.74 8.53 1.811 3.264 2.717 7.318 2.717 12.162Z" fill="#027a00"/>
</svg>
