<svg viewBox="-1768 -1100 4619 1123" xmlns="http://www.w3.org/2000/svg"><path d="M-1161-1100h3c26 4 51 9 76 16h2c56 16 111 42 158 75l2 1a488 488 0 0 1 100 87l12 13 7 8 14 18 2 2 9 13 2 2 20 31 2 3c47 78 75 165 63 417-12 47-30 93-55 135l-1 2a558 558 0 0 1-18 29l-1 2-19 26 170 1v209h-144a349119 349119 0 0 0-68 0h-194a8478 8478 0 0 0-34 0h-18c-25 0-48 1-72 6l-29 4h-3c-36 4-74 4-110 0h-3c-57-7-111-21-163-44a754 754 0 0 0-7-3c-11-4-21-10-31-15l-2-1-52-32-2-2c-10-6-19-14-29-22l-8-6-12-11a300 300 0 0 0-7-6l-11-11a90 90 0 0 0-6-5l-9-9-7-7-11-13-7-8-15-18-1-2-25-35-1-2-22-37-1-3c-45-81-64-174-43-407 7-23 15-45 24-67l2-3c19-43 43-84 72-121l2-3a456 456 0 0 1 83-85 536 536 0 0 0 7-5l29-22 3-2 31-20 7-4c82-48 175-72 339-69m-116 212h-3c-43 7-85 23-122 47a510 510 0 0 1-5 3 283 283 0 0 0-57 47 68 68 0 0 0-3 3l-2 2-2 3a2095 2095 0 0 1-2 3c-18 20-32 41-45 64l-1 2c-25 44-39 98-39 149v17c0 17 1 35 3 52l1 3 3 19 1 2c8 41 25 81 48 115l2 2c9 14 19 27 30 39l2 1c8 10 17 19 26 27l3 2c44 39 98 64 155 75h3l16 3h3a321 321 0 0 0 244-70l2-1c17-14 32-30 46-47l1-1 23-34 2-2c30-51 49-111 50-170v-17c0-18-1-36-4-53v-3c-8-50-27-99-56-140l-1-2-17-22-2-3c-16-19-34-37-54-52l-2-2c-12-9-24-17-38-24l-2-1c-62-35-137-47-207-36m2999 254 2 1 21 18a203 203 0 0 0 6 5l11 10 1 2a97 97 0 0 1 8 9l8-37 1-3a5044 5044 0 0 0 2-11l1-4 1-4 1-5h192v643h-207l-1-77-21 21-11 9a1315 1315 0 0 0-6 5c-58 50-133 64-208 59-57-5-115-21-163-54l-2-2c-12-8-23-18-34-28a2310 2310 0 0 0-3-3l-17-19-2-3-18-25-1-2c-12-19-21-41-29-63l-1-3c-6-21-11-43-14-65v-4c-3-21-4-43-4-65v-4l3-57 1-4 8-44 1-3c11-43 30-83 57-119l2-2 19-22a213 213 0 0 0 6-7 155 155 0 0 1 29-27c42-35 96-59 150-65h3c74-9 149 3 208 49m-218 156-1 1a189 189 0 0 0-13 260l2 2 12 12 3 3c35 30 79 42 124 39 21-1 41-5 60-14l2-1c10-4 18-9 26-16l3-2c14-11 26-25 35-40a119 119 0 0 1 6-8c10-14 9-31 9-48v-13a2511 2511 0 0 0-1-71v-11a955 955 0 0 0 0-12 329 329 0 0 1 0-4c0-15-4-25-12-37l-1-2c-24-37-61-62-104-72-52-11-108-3-150 34m1129-205h3c18 0 35 0 52 4h3a202 202 0 0 1 106 57c32 28 49 72 53 113v142a261397 261397 0 0 1 0 74v283h-206v-386a1116 1116 0 0 1 0-5c0-14-1-29-5-44v-2c-4-13-10-26-20-36l-2-3a88 88 0 0 0-60-21h-3c-36-1-68 12-93 36-19 19-33 43-43 67l-1 2c-11 27-16 56-19 85l-1 3c-2 22-2 44-2 65v49a73687 73687 0 0 0 0 40 121201 121201 0 0 1 0 40v19l-1 91h-206v-643h187l4 18v3l1 9 1 6 3 16 2 16 4 32 2-3 3-4 1-2c8-12 16-23 25-33l2-2 14-14 8-7 17-14 3-2c38-28 83-43 130-48h3l35-1m-3067 30h206v88l1 55v229c0 37 1 76 26 105v2l2 1 6 4c19 14 46 16 69 13 34-5 61-25 81-52C-3-263 6-333 7-400v-253h201l6 1v642H26l-3-19v-3a3485 3485 0 0 1-1-5l-1-9-3-22-3-18-1-9v-5l-1-2c0-4 0-4-2-7l-1 3C2-93-7-81-17-69l-2 2c-10 12-21 23-34 33l-3 3c-15 11-31 21-49 29l-3 1c-12 6-24 9-37 13l-2 1c-38 10-83 12-122 5l-3-1c-52-9-99-38-129-82-24-34-33-73-33-114v-474" fill="#017900"/><path d="m871-685-3 69v14l-2 27-1 32-4 64h-25c-47-1-89 13-125 44l-2 2a324 324 0 0 0-8 7l-1 1c-10 9-18 19-26 30l-1 2c-26 35-42 81-42 125v105a126343 126343 0 0 1 0 41v19l-1 93H424v-640l1-3h186l1 2 5 52 3 24 2 22 1 12 2 10v6l2 17 2-3c8-17 19-32 30-47l3-3 21-23 1-1 21-19a948 948 0 0 0 4-3c26-22 54-40 84-54l6-3c22-11 47-21 72-21" fill="#017A00"/><path d="M963-1089h183v90l-1 19v32l-1 32v36l-1 23-1 66v27l-2 48H963z" fill="#017900"/></svg>
